Coordinates
version=1
nRows=13
nColumns=38
inDegrees=no

Units are S.I. units (second, meters, Newtons, ...)
If the header above contains a line with 'inDegrees', this indicates whether rotational values are in degrees (yes) or radians (no).

endheader
time	pelvis_tilt	pelvis_list	pelvis_rotation	pelvis_tx	pelvis_ty	pelvis_tz	hip_flexion_r	hip_adduction_r	hip_rotation_r	knee_angle_r	ankle_angle_r	subtalar_angle_r	mtp_angle_r	hip_flexion_l	hip_adduction_l	hip_rotation_l	knee_angle_l	ankle_angle_l	subtalar_angle_l	mtp_angle_l	lumbar_extension	lumbar_bending	lumbar_rotation	arm_flex_r	arm_add_r	arm_rot_r	elbow_flex_r	pro_sup_r	wrist_flex_r	wrist_dev_r	arm_flex_l	arm_add_l	arm_rot_l	elbow_flex_l	pro_sup_l	wrist_flex_l	wrist_dev_l
0.63	-0.359851	1.28873	-1.08685	1.07089	0.769425	0.942848	-0.00129346	0.095873	-0.241386	0.431205	-0.242269	0	0	-0.334895	-0.243983	-0.115339	0.960961	-0.397413	0	0	-0.326868	0.196239	-0.10692	-0.333597	-0.240069	-0.344083	0.881828	0.40295	0	0	0.0737572	-0.300007	0.321126	0.737492	1.42831	0	0
0.64	-0.357368	1.29163	-1.09459	1.06922	0.759227	0.94413	-0.013391	0.0982202	-0.23693	0.425633	-0.236048	0	0	-0.299669	-0.241466	-0.102793	1.02138	-0.397563	0	0	-0.325896	0.193449	-0.102066	-0.332715	-0.237603	-0.347668	0.879955	0.408183	0	0	0.067452	-0.297258	0.321189	0.727894	1.41093	0	0
0.65	-0.345748	1.29203	-1.10853	1.06782	0.749238	0.94577	-0.0307702	0.0995506	-0.233631	0.415416	-0.233071	0	0	-0.26733	-0.23788	-0.0895303	1.07657	-0.390371	0	0	-0.328637	0.189069	-0.099736	-0.330446	-0.235181	-0.34922	0.876366	0.41098	0	0	0.0600507	-0.298096	0.324487	0.721828	1.40401	0	0
0.66	-0.328594	1.2907	-1.12641	1.06649	0.739411	0.947579	-0.0519045	0.1006	-0.227937	0.401891	-0.230883	0	0	-0.237326	-0.233483	-0.0770023	1.12591	-0.369597	0	0	-0.333458	0.183391	-0.0992326	-0.326897	-0.232308	-0.350108	0.871267	0.413016	0	0	0.0514638	-0.302174	0.331095	0.718668	1.4036	0	0
0.67	-0.310101	1.28941	-1.14474	1.06514	0.729535	0.949413	-0.0746516	0.101732	-0.220808	0.385263	-0.229828	0	0	-0.208141	-0.228439	-0.0657273	1.16929	-0.333337	0	0	-0.337677	0.177881	-0.0997751	-0.324159	-0.228941	-0.352125	0.867052	0.414947	0	0	0.0433081	-0.304518	0.334064	0.714728	1.3971	0	0
0.68	-0.290248	1.28726	-1.16537	1.06376	0.71987	0.951229	-0.0982743	0.102504	-0.212545	0.368173	-0.229789	0	0	-0.180584	-0.222717	-0.0571941	1.20786	-0.293592	0	0	-0.343314	0.171939	-0.0991809	-0.321786	-0.225792	-0.354007	0.863865	0.417104	0	0	0.0344126	-0.3078	0.336725	0.713404	1.39182	0	0
0.69	-0.270436	1.2853	-1.18617	1.06239	0.71021	0.952971	-0.121937	0.102765	-0.206435	0.351088	-0.229992	0	0	-0.153456	-0.215788	-0.0488486	1.24145	-0.255693	0	0	-0.348605	0.165967	-0.0989867	-0.319736	-0.222954	-0.355244	0.861213	0.420642	0	0	0.0255157	-0.310443	0.337649	0.713104	1.38212	0	0
0.7	-0.251245	1.28334	-1.20786	1.0609	0.700403	0.954582	-0.145894	0.102963	-0.202065	0.33504	-0.228803	0	0	-0.127835	-0.208111	-0.0421354	1.26844	-0.22723	0	0	-0.353472	0.158911	-0.0975124	-0.317986	-0.220383	-0.355673	0.858035	0.423405	0	0	0.0149321	-0.315214	0.341176	0.715286	1.38032	0	0
0.71	-0.233548	1.28201	-1.22999	1.05941	0.690679	0.95601	-0.168774	0.102457	-0.196298	0.318896	-0.227772	0	0	-0.102818	-0.199359	-0.0365744	1.28898	-0.203797	0	0	-0.357957	0.15196	-0.0946847	-0.316939	-0.218533	-0.356267	0.856792	0.425891	0	0	0.00440498	-0.318907	0.343171	0.717917	1.37843	0	0
0.72	-0.215639	1.28128	-1.25315	1.05794	0.68102	0.957265	-0.190038	0.100511	-0.192089	0.304752	-0.226991	0	0	-0.0780346	-0.190017	-0.0328272	1.30281	-0.185563	0	0	-0.361863	0.144714	-0.0914525	-0.316221	-0.217005	-0.356743	0.85647	0.428418	0	0	-0.0064085	-0.322127	0.343476	0.721256	1.37473	0	0
0.73	-0.196959	1.28088	-1.27787	1.05644	0.671381	0.958442	-0.210426	0.0974704	-0.188739	0.29178	-0.226245	0	0	-0.0543436	-0.180775	-0.0318392	1.3093	-0.173544	0	0	-0.365334	0.136978	-0.0879874	-0.315142	-0.215702	-0.356879	0.855915	0.430688	0	0	-0.0165832	-0.324508	0.343115	0.723938	1.37012	0	0
0.74	-0.178626	1.28062	-1.30313	1.05496	0.661737	0.959508	-0.230991	0.0941188	-0.185113	0.277248	-0.226047	0	0	-0.0321763	-0.171984	-0.033644	1.30907	-0.164918	0	0	-0.368393	0.128853	-0.0836899	-0.31372	-0.214949	-0.356068	0.85452	0.432638	0	0	-0.0264393	-0.327008	0.343966	0.726478	1.36826	0	0
0.75	-0.158838	1.27958	-1.3295	1.05359	0.652239	0.960484	-0.252751	0.0902337	-0.181482	0.260419	-0.227003	0	0	-0.0119406	-0.162907	-0.0366001	1.30304	-0.155999	0	0	-0.372412	0.120466	-0.0797843	-0.311782	-0.214495	-0.354686	0.853051	0.434588	0	0	-0.0356653	-0.329572	0.344801	0.730016	1.36559	0	0
